# xmcd CD database file
#
# Track frame offsets:
#	150
#	21630
#	47020
#	67712
#	86527
#	98830
#	120970
#	142877
#	164847
#	182125
#	204750
#	221237
#
# Disc length: 3234 seconds
#
# Revision: 0
# Processed by: cddbd v1.5.1PL0 Copyright (c) Steve Scherf et al.
# Submitted via: CDex 1.51
#
DISCID=a30ca00c
DTITLE=Acoustic Club - Standard Club
DYEAR=1992
DGENRE=Jazz
TTITLE0=I'm All Alone
TTITLE1=雲 Nuages
TTITLE2=Manoir De Mes Reves
TTITLE3=Caravan
TTITLE4=Softry As In A Morning Sunrise
TTITLE5=Poinciana
TTITLE6=Bali Hai
TTITLE7=Moliendo Cafe
TTITLE8=Stella By Starlight
TTITLE9=Moonlight In Vermont
TTITLE10=In The Still Of The Night
TTITLE11=When You Wish Upon A Star
EXTD=YEAR: 1992
EXTT0=
EXTT1=
EXTT2=
EXTT3=
EXTT4=
EXTT5=
EXTT6=
EXTT7=
EXTT8=
EXTT9=
EXTT10=
EXTT11=
PLAYORDER=
